<svg xmlns="http://www.w3.org/2000/svg" xmlns:xlink="http://www.w3.org/1999/xlink" width="237" height="215.516" viewBox="0 0 237 215.516">
  <defs>
    <linearGradient id="linear-gradient" x1="0.5" x2="0.5" y2="1" gradientUnits="objectBoundingBox">
      <stop offset="0" stop-color="#3aa488"/>
      <stop offset="1" stop-color="#b1d1c9"/>
    </linearGradient>
  </defs>
  <g id="sean8" transform="translate(-22 -30.064)">
    <g id="Union_4" data-name="Union 4" transform="translate(-2530 4323.064)" fill="#f3c5ad">
      <path d="M 2671.569580078125 -4082.484130859375 C 2658.940185546875 -4082.484130859375 2646.624755859375 -4084.3095703125 2634.965087890625 -4087.90966796875 C 2623.654541015625 -4091.40185546875 2613.325927734375 -4096.44384765625 2604.26611328125 -4102.89501953125 C 2599.781982421875 -4106.087890625 2595.636962890625 -4109.6201171875 2591.946533203125 -4113.39404296875 C 2588.21240234375 -4117.2119140625 2584.902099609375 -4121.3193359375 2582.107421875 -4125.60205078125 C 2579.255859375 -4129.9716796875 2576.90771484375 -4134.5751953125 2575.128173828125 -4139.28515625 C 2573.770751953125 -4142.87841796875 2572.731201171875 -4146.5673828125 2572.024169921875 -4150.29541015625 C 2570.930419921875 -4150.54931640625 2569.85888671875 -4150.8994140625 2568.815185546875 -4151.34423828125 C 2566.510009765625 -4152.326171875 2564.441162109375 -4153.72705078125 2562.666259765625 -4155.5078125 C 2560.890869140625 -4157.28857421875 2559.49658203125 -4159.36181640625 2558.52197265625 -4161.669921875 C 2557.51171875 -4164.0625 2556.99951171875 -4166.6005859375 2556.99951171875 -4169.21337890625 C 2556.99951171875 -4174.27978515625 2558.938232421875 -4179.07568359375 2562.45849609375 -4182.71728515625 C 2564.818603515625 -4185.15869140625 2567.720703125 -4186.90771484375 2570.900634765625 -4187.84716796875 L 2570.900634765625 -4211.02880859375 L 2570.900634765625 -4216.02880859375 L 2575.900634765625 -4216.02880859375 L 2576.019775390625 -4216.02880859375 L 2597.126220703125 -4216.02880859375 C 2597.784912109375 -4216.60107421875 2598.45458984375 -4217.16650390625 2599.134033203125 -4217.7236328125 L 2575.900634765625 -4217.7236328125 L 2570.63916015625 -4217.7236328125 L 2570.9072265625 -4222.978515625 C 2571.12841796875 -4227.31494140625 2572.058837890625 -4231.63232421875 2573.6728515625 -4235.810546875 C 2575.22509765625 -4239.82958984375 2577.42578125 -4243.75927734375 2580.21337890625 -4247.49169921875 C 2582.90625 -4251.0966796875 2586.176025390625 -4254.5556640625 2589.93212890625 -4257.77294921875 C 2593.605712890625 -4260.919921875 2597.78271484375 -4263.8681640625 2602.346923828125 -4266.5361328125 C 2606.873779296875 -4269.18212890625 2611.82666015625 -4271.57861328125 2617.06787109375 -4273.6591796875 C 2622.331787109375 -4275.74853515625 2627.941162109375 -4277.541015625 2633.73974609375 -4278.98583984375 C 2645.744873046875 -4281.9775390625 2658.46630859375 -4283.49462890625 2671.55029296875 -4283.49462890625 C 2680.173095703125 -4283.49462890625 2688.738525390625 -4282.8232421875 2697.00830078125 -4281.49951171875 C 2704.3740234375 -4280.31982421875 2711.517578125 -4278.6220703125 2718.271728515625 -4276.44580078125 C 2718.49072265625 -4276.64501953125 2718.758056640625 -4276.8994140625 2719.079833984375 -4277.22216796875 C 2720.00341796875 -4278.14794921875 2721.07275390625 -4279.3330078125 2722.01611328125 -4280.3779296875 L 2722.085693359375 -4280.45556640625 C 2726.036865234375 -4284.83544921875 2728.891845703125 -4288 2732.55712890625 -4288 C 2733.36083984375 -4288 2734.137451171875 -4287.84228515625 2734.865234375 -4287.53125 C 2736.040283203125 -4287.0283203125 2737.6220703125 -4285.90966796875 2738.505126953125 -4283.42919921875 C 2738.845947265625 -4282.47119140625 2739.075927734375 -4281.32958984375 2739.208251953125 -4279.9384765625 C 2739.40625 -4277.85888671875 2739.372802734375 -4275.39501953125 2739.34033203125 -4273.01220703125 C 2739.32421875 -4271.83740234375 2739.308837890625 -4270.7109375 2739.320556640625 -4269.6806640625 C 2739.8427734375 -4270.173828125 2740.339599609375 -4270.65087890625 2740.732666015625 -4271.0283203125 L 2740.79931640625 -4271.09228515625 C 2742.116943359375 -4272.35791015625 2743.479736328125 -4273.66650390625 2744.66796875 -4274.68408203125 C 2746.21728515625 -4276.01123046875 2748.06103515625 -4277.4267578125 2750.342041015625 -4277.4267578125 C 2751.392578125 -4277.4267578125 2752.406494140625 -4277.12744140625 2753.274169921875 -4276.56103515625 L 2753.283447265625 -4276.55517578125 L 2753.292724609375 -4276.548828125 C 2754.428955078125 -4275.7998046875 2755.2490234375 -4274.6357421875 2755.60205078125 -4273.2705078125 C 2755.771728515625 -4272.6142578125 2755.83642578125 -4271.92236328125 2755.799560546875 -4271.15625 C 2755.76025390625 -4270.3369140625 2755.604248046875 -4269.41796875 2755.30908203125 -4268.2646484375 C 2754.876708984375 -4266.5751953125 2754.18359375 -4264.55224609375 2753.513427734375 -4262.595703125 C 2753.125 -4261.4619140625 2752.570068359375 -4259.841796875 2752.196044921875 -4258.5859375 C 2758.1259765625 -4253.6787109375 2762.831787109375 -4248.2705078125 2766.202880859375 -4242.48291015625 C 2770.208740234375 -4235.60595703125 2772.239990234375 -4228.35595703125 2772.239990234375 -4220.93505859375 C 2772.239990234375 -4219.79833984375 2772.1865234375 -4218.6064453125 2772.08154296875 -4217.39208984375 L 2764.4150390625 -4217.7236328125 L 2744.005615234375 -4217.7236328125 C 2744.68505859375 -4217.16650390625 2745.354736328125 -4216.60107421875 2746.013427734375 -4216.02880859375 L 2767.239990234375 -4216.02880859375 L 2772.239990234375 -4216.02880859375 L 2772.239990234375 -4211.02880859375 L 2772.239990234375 -4207.2177734375 L 2772.239990234375 -4187.07275390625 C 2779.2470703125 -4184.06689453125 2783.99951171875 -4177.10986328125 2783.99951171875 -4169.21337890625 C 2783.99951171875 -4164.5498046875 2782.319091796875 -4160.03955078125 2779.26806640625 -4156.5146484375 C 2777.09130859375 -4153.99951171875 2774.319091796875 -4152.0986328125 2771.23974609375 -4150.97216796875 C 2770.5419921875 -4147.0654296875 2769.479248046875 -4143.19775390625 2768.067626953125 -4139.43505859375 C 2766.296875 -4134.7138671875 2763.955322265625 -4130.09912109375 2761.108154296875 -4125.71826171875 C 2758.31787109375 -4121.4248046875 2755.010009765625 -4117.30712890625 2751.2763671875 -4113.47900390625 C 2747.58642578125 -4109.6953125 2743.440673828125 -4106.15380859375 2738.953857421875 -4102.9521484375 C 2734.4765625 -4099.7568359375 2729.611083984375 -4096.86572265625 2724.49267578125 -4094.35888671875 C 2719.3359375 -4091.833251953125 2713.86279296875 -4089.668701171875 2708.2255859375 -4087.92529296875 C 2696.551025390625 -4084.314697265625 2684.218017578125 -4082.484130859375 2671.569580078125 -4082.484130859375 Z" stroke="none"/>
      <path d="M 2671.569580078125 -4087.484130859375 C 2721.255859375 -4087.484130859375 2762.09033203125 -4117.091796875 2766.78857421875 -4154.9638671875 C 2773.704345703125 -4156.03076171875 2778.99951171875 -4162.0078125 2778.99951171875 -4169.21337890625 C 2778.99951171875 -4176.271484375 2773.93359375 -4182.14501953125 2767.239990234375 -4183.39697265625 L 2767.239990234375 -4207.2177734375 L 2767.239990234375 -4211.02880859375 L 2744.11376953125 -4211.02880859375 C 2739.30712890625 -4215.3935546875 2733.86328125 -4219.3232421875 2727.900634765625 -4222.7236328125 L 2767.10009765625 -4222.7236328125 L 2767.10009765625 -4217.82373046875 C 2767.189453125 -4218.85498046875 2767.239990234375 -4219.89404296875 2767.239990234375 -4220.93505859375 C 2767.239990234375 -4234.27392578125 2759.68994140625 -4246.5537109375 2747.029541015625 -4256.31396484375 C 2745.499755859375 -4257.494140625 2752.2099609375 -4271.27392578125 2750.54052734375 -4272.37451171875 C 2750.486083984375 -4272.41015625 2750.419677734375 -4272.4267578125 2750.342041015625 -4272.4267578125 C 2749.3994140625 -4272.4267578125 2746.801513671875 -4269.92431640625 2744.19580078125 -4267.421875 C 2741.59033203125 -4264.919921875 2738.9765625 -4262.4169921875 2738.006591796875 -4262.4169921875 C 2737.930908203125 -4262.4169921875 2737.864990234375 -4262.43212890625 2737.81005859375 -4262.4638671875 C 2737.080322265625 -4262.88427734375 2736.329833984375 -4263.3046875 2735.58056640625 -4263.70361328125 C 2732.800537109375 -4265.2138671875 2735.958984375 -4281.6240234375 2732.900634765625 -4282.93359375 C 2732.79541015625 -4282.978515625 2732.680908203125 -4283 2732.55712890625 -4283 C 2731.1025390625 -4283 2728.422119140625 -4280.0146484375 2725.72802734375 -4277.0283203125 C 2723.03271484375 -4274.04150390625 2720.32421875 -4271.0556640625 2718.812255859375 -4271.0556640625 C 2718.701416015625 -4271.0556640625 2718.596923828125 -4271.07177734375 2718.49951171875 -4271.10498046875 C 2704.6201171875 -4275.8046875 2688.61083984375 -4278.49462890625 2671.55029296875 -4278.49462890625 C 2619.6904296875 -4278.49462890625 2577.479736328125 -4253.68408203125 2575.900634765625 -4222.7236328125 L 2615.239013671875 -4222.7236328125 C 2609.2763671875 -4219.3232421875 2603.83251953125 -4215.3935546875 2599.02587890625 -4211.02880859375 L 2576.019775390625 -4211.02880859375 L 2575.900634765625 -4211.02880859375 L 2575.900634765625 -4183.6337890625 C 2568.17626953125 -4183.35595703125 2561.99951171875 -4177.0068359375 2561.99951171875 -4169.21337890625 C 2561.99951171875 -4161.27294921875 2568.42919921875 -4154.8251953125 2576.3720703125 -4154.79443359375 C 2581.1708984375 -4117.00390625 2621.958740234375 -4087.484130859375 2671.569580078125 -4087.484130859375 M 2671.569580078125 -4077.484130859375 C 2620.177490234375 -4077.484130859375 2577.017333984375 -4106.63818359375 2567.735107421875 -4146.3955078125 C 2558.547607421875 -4149.9111328125 2551.99951171875 -4158.82470703125 2551.99951171875 -4169.21337890625 C 2551.99951171875 -4178.970703125 2557.63720703125 -4187.3701171875 2565.900634765625 -4191.28857421875 L 2565.900634765625 -4211.02880859375 L 2565.900634765625 -4212.7236328125 L 2565.377685546875 -4212.7236328125 L 2565.91357421875 -4223.23291015625 C 2567.780029296875 -4259.828125 2614.181396484375 -4288.49462890625 2671.55029296875 -4288.49462890625 C 2687.23291015625 -4288.49462890625 2702.779541015625 -4286.29931640625 2716.841796875 -4282.12158203125 C 2717.38134765625 -4282.70556640625 2717.907958984375 -4283.2890625 2718.30419921875 -4283.72802734375 C 2722.823974609375 -4288.73876953125 2726.668212890625 -4293 2732.55712890625 -4293 L 2734.60400390625 -4293 L 2736.82958984375 -4292.12939453125 C 2741.965087890625 -4289.9306640625 2743.63623046875 -4285.466796875 2744.14990234375 -4280.53515625 C 2746.06591796875 -4281.7470703125 2748.00927734375 -4282.4267578125 2750.342041015625 -4282.4267578125 L 2753.317626953125 -4282.4267578125 L 2756.0078125 -4280.74755859375 C 2763.357421875 -4275.90234375 2760.52197265625 -4267.62548828125 2758.24365234375 -4260.97509765625 C 2758.15380859375 -4260.71337890625 2758.06298828125 -4260.4521484375 2757.97265625 -4260.19287109375 C 2770.41845703125 -4248.9130859375 2777.210205078125 -4235.1953125 2777.239990234375 -4221.02880859375 L 2777.239990234375 -4221.02880859375 L 2777.239990234375 -4211.02880859375 L 2777.239990234375 -4207.2177734375 L 2777.239990234375 -4190.10888671875 C 2784.364501953125 -4185.78369140625 2788.99951171875 -4177.95654296875 2788.99951171875 -4169.21337890625 C 2788.99951171875 -4159.72705078125 2783.682373046875 -4151.45361328125 2775.63427734375 -4147.4111328125 C 2766.860595703125 -4107.12353515625 2723.44140625 -4077.484130859375 2671.569580078125 -4077.484130859375 Z" stroke="none" fill="#b5cbc5"/>
    </g>
    <path id="bezier9" d="M46.43,168.27A14.425,14.425,0,1,0,32,153.85,14.427,14.427,0,0,0,46.43,168.27Zm0,0" fill="#f3c5ad"/>
    <path id="bezier10" d="M234.57,168.27a14.425,14.425,0,1,0-14.43-14.42A14.427,14.427,0,0,0,234.57,168.27Zm0,0" fill="#f3c5ad"/>
    <path id="bezier11" d="M141.57,235.58c52.84,0,95.67-33.49,95.67-74.79s-42.83-74.78-95.67-74.78S45.9,119.49,45.9,160.79,88.73,235.58,141.57,235.58Zm0,0" fill="#f3c5ad"/>
    <path id="bezier12" d="M97.21,163.77c0,9.33-7.42-11.99-16.57-11.99S64.07,173.1,64.07,163.77a16.573,16.573,0,1,1,33.14,0Zm0,0" fill="#55341b"/>
    <path id="bezier13" d="M224.41,163.77c0,9.33-7.42-11.99-16.57-11.99s-16.56,21.32-16.56,11.99a16.568,16.568,0,1,1,33.13,0Zm0,0" fill="#55341b"/>
    <path id="bezier14" d="M206.24,134.82c11.85,0,21.55,8.15,22.38,18.49.04-.47.07-.95.07-1.43,0-11.01-10.05-19.93-22.45-19.93s-22.45,8.92-22.45,19.93c0,.48.03.96.07,1.43.83-10.33,10.53-18.49,22.38-18.49Zm0,0" fill="#55341b"/>
    <path id="bezier15" d="M80.1,134.82c11.86,0,21.56,8.15,22.39,18.49.03-.47.06-.95.06-1.43,0-11.01-10.05-19.93-22.45-19.93s-22.44,8.92-22.44,19.93c0,.48.02.96.06,1.43.83-10.33,10.53-18.49,22.38-18.49Zm0,0" fill="#55341b"/>
    <path id="Union_2" data-name="Union 2" d="M3518.4-4686.173s-39.09,12.34-52.13,16.459c-20.809,6.581-83.27,26.3-83.27,26.3v-59.82h.11c2.849-30.253,44.526-54.26,95.541-54.26a147.311,147.311,0,0,1,46.949,7.39c1.427.487,4.336-2.718,7.229-5.924,2.923-3.239,5.83-6.479,7.172-5.9,3.059,1.31-.1,17.72,2.68,19.23.75.4,1.5.82,2.229,1.239.758.439,3.577-2.26,6.386-4.958s5.633-5.417,6.345-4.952c1.67,1.1-5.041,14.88-3.511,16.06,11.609,8.95,18.921,20.019,20.055,32.08h.155v59.82Z" transform="translate(-3337.1 4802.063)" fill="url(#linear-gradient)"/>
    <path id="bezier19" d="M142.1,171.47a5.344,5.344,0,0,1,5.24,4.28,5.332,5.332,0,0,0-5.24-6.41,5.339,5.339,0,0,0-5.34,5.34,5.394,5.394,0,0,0,.11,1.07,5.342,5.342,0,0,1,5.23-4.28Zm0,0" fill="#55341b"/>
    <path id="bezier20" d="M203.57,196.05a3.74,3.74,0,1,0-3.74-3.74A3.741,3.741,0,0,0,203.57,196.05Zm0,0" fill="rgba(246,172,44,0.5)"/>
    <path id="bezier21" d="M209.98,200.32a1.6,1.6,0,1,0-1.6-1.6A1.607,1.607,0,0,0,209.98,200.32Zm0,0" fill="rgba(246,172,44,0.5)"/>
    <path id="bezier22" d="M195.55,200.32a2.135,2.135,0,1,0-2.14-2.14A2.142,2.142,0,0,0,195.55,200.32Zm0,0" fill="rgba(246,172,44,0.5)"/>
    <path id="bezier23" d="M200.36,199.25a.535.535,0,1,0-.53-.53A.536.536,0,0,0,200.36,199.25Zm0,0" fill="rgba(246,172,44,0.5)"/>
    <path id="bezier24" d="M85.98,196.05a3.74,3.74,0,1,0-3.74-3.74A3.741,3.741,0,0,0,85.98,196.05Zm0,0" fill="rgba(246,172,44,0.5)"/>
    <path id="bezier25" d="M92.4,200.32a1.6,1.6,0,1,0-1.61-1.6A1.6,1.6,0,0,0,92.4,200.32Zm0,0" fill="rgba(246,172,44,0.5)"/>
    <path id="bezier26" d="M76.9,200.32a2.135,2.135,0,1,0-2.14-2.14A2.134,2.134,0,0,0,76.9,200.32Zm0,0" fill="rgba(246,172,44,0.5)"/>
    <path id="bezier27" d="M81.71,199.25a.535.535,0,1,0-.54-.53A.534.534,0,0,0,81.71,199.25Zm0,0" fill="rgba(246,172,44,0.5)"/>
    <path id="bezier28" d="M75.64,182.16a28.894,28.894,0,0,0-21.19,9.23c9.09,15.98,25.09,28.99,45.01,36.71a29.249,29.249,0,0,0-23.82-45.94Zm0,0" fill="rgba(7,7,6,0.05)"/>
    <path id="bezier29" d="M207.5,182.16a28.894,28.894,0,0,1,21.19,9.23c-9.09,15.98-25.09,28.99-45.01,36.71a29.249,29.249,0,0,1,23.82-45.94Zm0,0" fill="rgba(7,7,6,0.05)"/>
    <path id="bezier48" d="M142.1,180.02c24.21,0,43.83-2.15,43.83-4.81s-19.62-4.8-43.83-4.8-43.82,2.15-43.82,4.8S117.9,180.02,142.1,180.02Zm0,0" fill="rgba(26,23,24,0.05)"/>
    <path id="bezier52" d="M173.1,199.81c0,6.76-13.38,12.26-29.93,12.26s-29.93-5.51-29.93-12.26c0-6.81,13.38-12.31,29.93-12.31s29.93,5.5,29.93,12.31Zm0,0" fill="none" stroke="#55341b" stroke-width="3"/>
    <path id="bezier53" d="M110.03,184.29v14.96h65.21V184.29Zm0,0" fill="#f3c5ad"/>
  </g>
</svg>
