<svg id="sean" xmlns="http://www.w3.org/2000/svg" xmlns:xlink="http://www.w3.org/1999/xlink" width="282" height="282" viewBox="0 0 282 282">
  <defs>
    <clipPath id="clip-path">
      <circle id="Ellipse_3" data-name="Ellipse 3" cx="141" cy="141" r="141"/>
    </clipPath>
  </defs>
  <circle id="oval2" cx="141" cy="141" r="141" fill="#fcfcfc"/>
  <g id="group" clip-path="url(#clip-path)">
    <g id="page1">
      <g id="layer_1">
        <g id="layer_1_1_">
          <path id="bezier2" d="M106.18,234.3c11.06,4.14,13.23,25.63,4.84,48.01s-24.15,37.17-35.2,33.03-13.23-25.64-4.84-48.01S95.13,230.16,106.18,234.3Zm0,0" fill="#f3c5ad"/>
          <path id="bezier" d="M85.45,313.56v17.1H198.76v-17.1Zm0,0"/>
          <path id="bezier3" d="M69.5,287.42c-1.68-1.11-1.74-5.52-.23-10.18q-.255.57-.48,1.17c-1.94,5.08-2.03,10.18-.2,11.39s4.88-1.93,6.82-7.01c.15-.41.29-.81.42-1.21-1.93,4.38-4.65,6.95-6.33,5.84Zm0,0" fill="rgba(26,23,24,0.3)"/>
          <path id="bezier4" d="M171.82,222.3c-11.06,4.14-13.23,25.63-4.84,48.01s24.15,37.17,35.2,33.03,13.23-25.64,4.84-48.01S182.87,218.16,171.82,222.3Zm0,0" fill="#f3c5ad"/>
          <path id="bezier5" d="M195.56,296.25c-3.27,0-5.95-5.02-6.36-11.53q-.06.84-.06,1.71c0,7.32,2.87,13.25,6.41,13.25s6.42-5.93,6.42-13.25c0-.58-.03-1.15-.07-1.71-.4,6.5-3.09,11.53-6.34,11.53Zm0,0" fill="rgba(26,23,24,0.3)"/>
          <path id="bezier6" d="M209.45,248.39l-19.56-27.77-15.76,7.24-1.4-4.57H109.82l-1.08,3.96-14.42-6.63L74.76,248.39l24.99,11.48L84.38,315.7H201.01l-17.02-55.61Zm0,0" fill="#3aa488"/>
          <path id="bezier7" d="M142.1,252.67a18.16,18.16,0,1,0-18.17-18.16A18.17,18.17,0,0,0,142.1,252.67Zm0,0" fill="#fff"/>
          <path id="bezier8" d="M142.07,249.4c8.25,0,14.93-6.24,14.93-13.93s-6.68-13.92-14.93-13.92-14.93,6.23-14.93,13.92S133.82,249.4,142.07,249.4Zm0,0" fill="#d5a691"/>
          <path id="bezier9" d="M46.43,168.27A14.425,14.425,0,1,0,32,153.85,14.427,14.427,0,0,0,46.43,168.27Zm0,0" fill="#f3c5ad"/>
          <path id="bezier10" d="M234.57,168.27a14.425,14.425,0,1,0-14.43-14.42A14.427,14.427,0,0,0,234.57,168.27Zm0,0" fill="#f3c5ad"/>
          <path id="bezier11" d="M141.57,235.58c52.84,0,95.67-33.49,95.67-74.79s-42.83-74.78-95.67-74.78S45.9,119.49,45.9,160.79,88.73,235.58,141.57,235.58Zm0,0" fill="#f3c5ad"/>
          <path id="bezier12" d="M97.21,163.77c0,9.33-7.42-11.99-16.57-11.99S64.07,173.1,64.07,163.77a16.573,16.573,0,1,1,33.14,0Zm0,0" fill="rgba(26,23,24,0.38)"/>
          <path id="bezier13" d="M224.41,163.77c0,9.33-7.42-11.99-16.57-11.99s-16.56,21.32-16.56,11.99a16.568,16.568,0,1,1,33.13,0Zm0,0" fill="rgba(26,23,24,0.38)"/>
          <path id="bezier14" d="M206.24,134.82c11.85,0,21.55,8.15,22.38,18.49.04-.47.07-.95.07-1.43,0-11.01-10.05-19.93-22.45-19.93s-22.45,8.92-22.45,19.93c0,.48.03.96.07,1.43.83-10.33,10.53-18.49,22.38-18.49Zm0,0" fill="rgba(26,23,24,0.3)"/>
          <path id="bezier15" d="M80.1,134.82c11.86,0,21.56,8.15,22.39,18.49.03-.47.06-.95.06-1.43,0-11.01-10.05-19.93-22.45-19.93s-22.44,8.92-22.44,19.93c0,.48.02.96.06,1.43.83-10.33,10.53-18.49,22.38-18.49Zm0,0" fill="rgba(26,23,24,0.3)"/>
          <path id="bezier16" d="M237.1,105.24c.09-1.03.14-2.07.14-3.11,0-13.34-7.55-25.62-20.21-35.38-1.53-1.18,5.18-14.96,3.51-16.06-1.42-.93-11.21,10.79-12.73,9.91-.73-.42-1.48-.84-2.23-1.24-2.78-1.51.38-17.92-2.68-19.23-2.67-1.14-11.53,12.81-14.4,11.83a147.324,147.324,0,0,0-46.95-7.39c-51.86,0-94.07,24.81-95.65,55.77H237.1v4.9Zm0,0" fill="#eca042"/>
          <path id="bezier17" d="M237.24,98.83H45.9v59.82s62.46-19.72,83.27-26.3c13.04-4.12,52.13-16.46,52.13-16.46l55.94,42.76V98.83Zm0,0" fill="#eca042"/>
          <path id="bezier18" d="M141.03,317.84v13.89h1.07V317.84Zm0,0" fill="#2c2723"/>
          <path id="bezier19" d="M142.1,171.47a5.344,5.344,0,0,1,5.24,4.28,5.332,5.332,0,0,0-5.24-6.41,5.339,5.339,0,0,0-5.34,5.34,5.394,5.394,0,0,0,.11,1.07,5.342,5.342,0,0,1,5.23-4.28Zm0,0" fill="rgba(26,23,24,0.3)"/>
          <path id="bezier20" d="M203.57,196.05a3.74,3.74,0,1,0-3.74-3.74A3.741,3.741,0,0,0,203.57,196.05Zm0,0" fill="rgba(246,172,44,0.5)"/>
          <path id="bezier21" d="M209.98,200.32a1.6,1.6,0,1,0-1.6-1.6A1.607,1.607,0,0,0,209.98,200.32Zm0,0" fill="rgba(246,172,44,0.5)"/>
          <path id="bezier22" d="M195.55,200.32a2.135,2.135,0,1,0-2.14-2.14A2.142,2.142,0,0,0,195.55,200.32Zm0,0" fill="rgba(246,172,44,0.5)"/>
          <path id="bezier23" d="M200.36,199.25a.535.535,0,1,0-.53-.53A.536.536,0,0,0,200.36,199.25Zm0,0" fill="rgba(246,172,44,0.5)"/>
          <path id="bezier24" d="M85.98,196.05a3.74,3.74,0,1,0-3.74-3.74A3.741,3.741,0,0,0,85.98,196.05Zm0,0" fill="rgba(246,172,44,0.5)"/>
          <path id="bezier25" d="M92.4,200.32a1.6,1.6,0,1,0-1.61-1.6A1.6,1.6,0,0,0,92.4,200.32Zm0,0" fill="rgba(246,172,44,0.5)"/>
          <path id="bezier26" d="M76.9,200.32a2.135,2.135,0,1,0-2.14-2.14A2.134,2.134,0,0,0,76.9,200.32Zm0,0" fill="rgba(246,172,44,0.5)"/>
          <path id="bezier27" d="M81.71,199.25a.535.535,0,1,0-.54-.53A.534.534,0,0,0,81.71,199.25Zm0,0" fill="rgba(246,172,44,0.5)"/>
          <path id="bezier28" d="M75.64,182.16a28.894,28.894,0,0,0-21.19,9.23c9.09,15.98,25.09,28.99,45.01,36.71a29.249,29.249,0,0,0-23.82-45.94Zm0,0" fill="rgba(7,7,6,0.05)"/>
          <path id="bezier29" d="M207.5,182.16a28.894,28.894,0,0,1,21.19,9.23c-9.09,15.98-25.09,28.99-45.01,36.71a29.249,29.249,0,0,1,23.82-45.94Zm0,0" fill="rgba(7,7,6,0.05)"/>
          <path id="bezier30" d="M74.22,336c2.66,0,4.81-1.67,4.81-3.74s-2.15-3.74-4.81-3.74-4.81,1.68-4.81,3.74S71.57,336,74.22,336Zm0,0" fill="#2c2723"/>
          <path id="bezier31" d="M81.71,336c2.65,0,4.81-1.67,4.81-3.74s-2.16-3.74-4.81-3.74-4.81,1.68-4.81,3.74S79.05,336,81.71,336Zm0,0" fill="#2c2723"/>
          <path id="bezier32" d="M89.19,336c2.66,0,4.81-1.67,4.81-3.74s-2.15-3.74-4.81-3.74-4.81,1.68-4.81,3.74S86.53,336,89.19,336Zm0,0" fill="#2c2723"/>
          <path id="bezier33" d="M97.74,336c2.66,0,4.81-1.67,4.81-3.74s-2.15-3.74-4.81-3.74-4.81,1.68-4.81,3.74S95.08,336,97.74,336Zm0,0" fill="#2c2723"/>
          <path id="bezier34" d="M105.22,336c2.66,0,4.81-1.67,4.81-3.74s-2.15-3.74-4.81-3.74-4.81,1.68-4.81,3.74S102.57,336,105.22,336Zm0,0" fill="#2c2723"/>
          <path id="bezier35" d="M112.71,336c2.65,0,4.81-1.67,4.81-3.74s-2.16-3.74-4.81-3.74-4.81,1.68-4.81,3.74S110.05,336,112.71,336Zm0,0" fill="#2c2723"/>
          <path id="bezier36" d="M121.26,336c2.66,0,4.81-1.67,4.81-3.74s-2.15-3.74-4.81-3.74-4.81,1.68-4.81,3.74S118.6,336,121.26,336Zm0,0" fill="#2c2723"/>
          <path id="bezier37" d="M128.74,336c2.66,0,4.81-1.67,4.81-3.74s-2.15-3.74-4.81-3.74-4.81,1.68-4.81,3.74S126.08,336,128.74,336Zm0,0" fill="#2c2723"/>
          <path id="bezier38" d="M136.22,336c2.66,0,4.81-1.67,4.81-3.74s-2.15-3.74-4.81-3.74-4.81,1.68-4.81,3.74S133.57,336,136.22,336Zm0,0" fill="#2c2723"/>
          <path id="bezier39" d="M146.91,336c2.66,0,4.81-1.67,4.81-3.74s-2.15-3.74-4.81-3.74-4.81,1.68-4.81,3.74S144.26,336,146.91,336Zm0,0" fill="#2c2723"/>
          <path id="bezier40" d="M154.4,336c2.65,0,4.81-1.67,4.81-3.74s-2.16-3.74-4.81-3.74-4.81,1.68-4.81,3.74S151.74,336,154.4,336Zm0,0" fill="#2c2723"/>
          <path id="bezier41" d="M161.88,336c2.66,0,4.81-1.67,4.81-3.74s-2.15-3.74-4.81-3.74-4.81,1.68-4.81,3.74S159.22,336,161.88,336Zm0,0" fill="#2c2723"/>
          <path id="bezier42" d="M170.43,336c2.66,0,4.81-1.67,4.81-3.74s-2.15-3.74-4.81-3.74-4.81,1.68-4.81,3.74S167.77,336,170.43,336Zm0,0" fill="#2c2723"/>
          <path id="bezier43" d="M177.91,336c2.66,0,4.81-1.67,4.81-3.74s-2.15-3.74-4.81-3.74-4.81,1.68-4.81,3.74S175.26,336,177.91,336Zm0,0" fill="#2c2723"/>
          <path id="bezier44" d="M185.4,336c2.65,0,4.81-1.67,4.81-3.74s-2.16-3.74-4.81-3.74-4.81,1.68-4.81,3.74S182.74,336,185.4,336Zm0,0" fill="#2c2723"/>
          <path id="bezier45" d="M193.95,336c2.65,0,4.81-1.67,4.81-3.74s-2.16-3.74-4.81-3.74-4.81,1.68-4.81,3.74S191.29,336,193.95,336Zm0,0" fill="#2c2723"/>
          <path id="bezier46" d="M201.43,336c2.66,0,4.81-1.67,4.81-3.74s-2.15-3.74-4.81-3.74-4.81,1.68-4.81,3.74S198.77,336,201.43,336Zm0,0" fill="#2c2723"/>
          <path id="bezier47" d="M208.91,336c2.66,0,4.81-1.67,4.81-3.74s-2.15-3.74-4.81-3.74-4.81,1.68-4.81,3.74S206.26,336,208.91,336Zm0,0" fill="#2c2723"/>
          <path id="bezier48" d="M142.1,180.02c24.21,0,43.83-2.15,43.83-4.81s-19.62-4.8-43.83-4.8-43.82,2.15-43.82,4.8S117.9,180.02,142.1,180.02Zm0,0" fill="rgba(26,23,24,0.05)"/>
          <path id="bezier49" d="M105.76,317.84c-20.08,0-36.35,6.69-36.35,14.95H142.1c0-8.26-16.27-14.95-36.34-14.95Zm0,0" fill="#fff"/>
          <path id="bezier50" d="M178.45,317.84c-20.07,0-36.35,6.69-36.35,14.95h72.69c0-8.26-16.27-14.95-36.34-14.95Zm0,0" fill="#fff"/>
          <path id="bezier51" d="M69.88,268.97c-2.06-2.88-4.89-4.38-6.33-3.35s-.94,4.2,1.12,7.07,4.9,4.38,6.34,3.36S71.94,271.85,69.88,268.97Zm0,0" fill="#f1b89c"/>
        </g>
        <path id="bezier52" d="M173.1,199.81c0,6.76-13.38,12.26-29.93,12.26s-29.93-5.51-29.93-12.26c0-6.81,13.38-12.31,29.93-12.31s29.93,5.5,29.93,12.31Zm0,0" fill="none" stroke="#a48677" stroke-width="3"/>
        <path id="bezier53" d="M110.03,184.29v14.96h65.21V184.29Zm0,0" fill="#f3c5ad"/>
      </g>
    </g>
  </g>
</svg>
