<svg xmlns="http://www.w3.org/2000/svg" width="217" height="195.516" viewBox="0 0 217 195.516">
  <g id="sean" transform="translate(-32 -40.064)">
    <g id="layer_1_1_">
      <path id="bezier9" d="M46.43,168.27A14.425,14.425,0,1,0,32,153.85,14.427,14.427,0,0,0,46.43,168.27Zm0,0" fill="#f3c5ad"/>
      <path id="bezier10" d="M234.57,168.27a14.425,14.425,0,1,0-14.43-14.42A14.427,14.427,0,0,0,234.57,168.27Zm0,0" fill="#f3c5ad"/>
      <path id="bezier11" d="M141.57,235.58c52.84,0,95.67-33.49,95.67-74.79s-42.83-74.78-95.67-74.78S45.9,119.49,45.9,160.79,88.73,235.58,141.57,235.58Zm0,0" fill="#f3c5ad"/>
      <path id="bezier12" d="M97.21,163.77c0,9.33-7.42-11.99-16.57-11.99S64.07,173.1,64.07,163.77a16.573,16.573,0,1,1,33.14,0Zm0,0" fill="#362016"/>
      <path id="bezier13" d="M224.41,163.77c0,9.33-7.42-11.99-16.57-11.99s-16.56,21.32-16.56,11.99a16.568,16.568,0,1,1,33.13,0Zm0,0" fill="#362016"/>
      <path id="bezier14" d="M206.24,134.82c11.85,0,21.55,8.15,22.38,18.49.04-.47.07-.95.07-1.43,0-11.01-10.05-19.93-22.45-19.93s-22.45,8.92-22.45,19.93c0,.48.03.96.07,1.43.83-10.33,10.53-18.49,22.38-18.49Zm0,0" fill="#362016"/>
      <path id="bezier15" d="M80.1,134.82c11.86,0,21.56,8.15,22.39,18.49.03-.47.06-.95.06-1.43,0-11.01-10.05-19.93-22.45-19.93s-22.44,8.92-22.44,19.93c0,.48.02.96.06,1.43.83-10.33,10.53-18.49,22.38-18.49Zm0,0" fill="#362016"/>
      <path id="Union_2" data-name="Union 2" d="M3518.4-4686.173s-39.09,12.34-52.13,16.459c-20.809,6.581-83.27,26.3-83.27,26.3v-59.82h.11c2.849-30.253,44.526-54.26,95.541-54.26a147.311,147.311,0,0,1,46.949,7.39c1.427.487,4.336-2.718,7.229-5.924,2.923-3.239,5.83-6.479,7.172-5.9,3.059,1.31-.1,17.72,2.68,19.23.75.4,1.5.82,2.229,1.239.758.439,3.577-2.26,6.386-4.958s5.633-5.417,6.345-4.952c1.67,1.1-5.041,14.88-3.511,16.06,11.609,8.95,18.921,20.019,20.055,32.08h.155v59.82Z" transform="translate(-3337.1 4802.063)" fill="#3aa488"/>
      <path id="bezier19" d="M142.1,171.47a5.344,5.344,0,0,1,5.24,4.28,5.332,5.332,0,0,0-5.24-6.41,5.339,5.339,0,0,0-5.34,5.34,5.394,5.394,0,0,0,.11,1.07,5.342,5.342,0,0,1,5.23-4.28Zm0,0" fill="#362016"/>
      <path id="bezier20" d="M203.57,196.05a3.74,3.74,0,1,0-3.74-3.74A3.741,3.741,0,0,0,203.57,196.05Zm0,0" fill="rgba(246,172,44,0.5)"/>
      <path id="bezier21" d="M209.98,200.32a1.6,1.6,0,1,0-1.6-1.6A1.607,1.607,0,0,0,209.98,200.32Zm0,0" fill="rgba(246,172,44,0.5)"/>
      <path id="bezier22" d="M195.55,200.32a2.135,2.135,0,1,0-2.14-2.14A2.142,2.142,0,0,0,195.55,200.32Zm0,0" fill="rgba(246,172,44,0.5)"/>
      <path id="bezier23" d="M200.36,199.25a.535.535,0,1,0-.53-.53A.536.536,0,0,0,200.36,199.25Zm0,0" fill="rgba(246,172,44,0.5)"/>
      <path id="bezier24" d="M85.98,196.05a3.74,3.74,0,1,0-3.74-3.74A3.741,3.741,0,0,0,85.98,196.05Zm0,0" fill="rgba(246,172,44,0.5)"/>
      <path id="bezier25" d="M92.4,200.32a1.6,1.6,0,1,0-1.61-1.6A1.6,1.6,0,0,0,92.4,200.32Zm0,0" fill="rgba(246,172,44,0.5)"/>
      <path id="bezier26" d="M76.9,200.32a2.135,2.135,0,1,0-2.14-2.14A2.134,2.134,0,0,0,76.9,200.32Zm0,0" fill="rgba(246,172,44,0.5)"/>
      <path id="bezier27" d="M81.71,199.25a.535.535,0,1,0-.54-.53A.534.534,0,0,0,81.71,199.25Zm0,0" fill="rgba(246,172,44,0.5)"/>
      <path id="bezier28" d="M75.64,182.16a28.894,28.894,0,0,0-21.19,9.23c9.09,15.98,25.09,28.99,45.01,36.71a29.249,29.249,0,0,0-23.82-45.94Zm0,0" fill="rgba(7,7,6,0.05)"/>
      <path id="bezier29" d="M207.5,182.16a28.894,28.894,0,0,1,21.19,9.23c-9.09,15.98-25.09,28.99-45.01,36.71a29.249,29.249,0,0,1,23.82-45.94Zm0,0" fill="rgba(7,7,6,0.05)"/>
      <path id="bezier48" d="M142.1,180.02c24.21,0,43.83-2.15,43.83-4.81s-19.62-4.8-43.83-4.8-43.82,2.15-43.82,4.8S117.9,180.02,142.1,180.02Zm0,0" fill="rgba(26,23,24,0.05)"/>
    </g>
    <path id="bezier52" d="M173.1,199.81c0,6.76-13.38,12.26-29.93,12.26s-29.93-5.51-29.93-12.26c0-6.81,13.38-12.31,29.93-12.31s29.93,5.5,29.93,12.31Zm0,0" fill="none" stroke="#523527" stroke-width="3"/>
    <path id="bezier53" d="M110.03,184.29v14.96h65.21V184.29Zm0,0" fill="#f3c5ad"/>
  </g>
</svg>
